<svg width="151" height="52" viewBox="0 0 151 52" fill="none" xmlns="http://www.w3.org/2000/svg">
<path d="M104.801 51.693C103.946 51.0584 103.73 50.2086 103.736 49.1604C103.776 42.3104 103.753 35.4547 103.759 28.6047C103.759 26.9559 104.314 26.4063 105.963 26.4063C108.637 26.4063 111.311 26.429 113.98 26.3893C114.598 26.378 114.824 26.5083 114.886 27.1712C115.379 32.2478 117.306 36.7465 120.484 40.7183C121.68 42.2084 123.408 42.4577 124.796 41.3755C126.162 40.3103 126.314 38.5199 125.119 37.0241C122.898 34.2422 121.476 31.1146 120.898 27.6018C120.7 26.4063 120.7 26.4063 121.895 26.4063C128.49 26.4233 133.901 31.8852 133.992 38.4803C134.071 44.0611 131.776 48.1405 126.739 50.6392C125.703 51.1548 124.547 51.2681 123.493 51.6987C117.26 51.693 111.028 51.693 104.801 51.693Z" fill="white"/>
<path d="M150.683 40.1853C150.355 40.3667 150.428 40.7293 150.343 41.0069C149.267 44.4177 146.077 46.4008 142.513 45.8342C139.238 45.3186 136.672 42.1854 136.825 38.8935C136.989 35.2674 139.561 32.5081 143.085 32.1682C146.536 31.8396 149.663 34.1172 150.468 37.5337C150.513 37.7264 150.394 37.9927 150.678 38.106C150.683 38.7972 150.683 39.4884 150.683 40.1853Z" fill="white"/>
<path d="M87.8037 51.6929C87.3617 50.554 87.968 49.5002 88.0813 48.4123C88.1096 48.163 88.4609 48.3557 88.6592 48.384C90.308 48.6276 90.9992 47.7948 90.4043 46.2763C89.0332 42.7805 87.6564 39.279 86.2172 35.6188C87.492 35.6188 88.6649 35.6132 89.832 35.6245C90.274 35.6302 90.257 36.0381 90.3533 36.3101C91.1012 38.3724 91.8321 40.4405 92.5913 42.5765C92.9483 42.1969 93.0106 41.7323 93.1636 41.3243C93.7755 39.6473 94.376 37.9645 94.9823 36.2817C95.1069 35.9305 95.1749 35.5848 95.7075 35.6075C96.8067 35.6528 97.9059 35.6188 99.124 35.6188C98.5971 36.973 98.1042 38.2421 97.5999 39.5113C96.5517 42.1629 95.4186 44.7862 94.4724 47.4775C93.7471 49.5398 92.7216 51.1829 90.4383 51.6929C89.5714 51.6929 88.6875 51.6929 87.8037 51.6929Z" fill="white"/>
<path d="M0.00567138 31.3128C4.12474 31.3015 8.24382 31.2958 12.3629 31.2731C12.8388 31.2675 13.0428 31.3921 13.0145 31.902C12.9748 32.6839 12.9748 33.4715 13.0145 34.259C13.0428 34.7916 12.7992 34.888 12.3402 34.8766C11.3657 34.854 10.3912 34.9106 9.41666 34.854C8.74809 34.8143 8.57811 35.0352 8.58378 35.6925C8.61777 39.1827 8.57811 42.6672 8.61777 46.1573C8.6291 46.9109 8.41946 47.1545 7.67157 47.0922C6.88968 47.0299 6.09646 47.0355 5.31457 47.0922C4.63467 47.1432 4.4817 46.8939 4.48736 46.248C4.51569 42.7578 4.47603 39.2733 4.52135 35.7831C4.53269 35.0296 4.31738 34.8143 3.58082 34.8596C2.39099 34.9276 1.19549 34.8936 0 34.9049C0.00566585 33.7038 0.00567138 32.5083 0.00567138 31.3128Z" fill="white"/>
<path d="M18.9013 13.097C22.6974 14.3208 24.0346 17.675 23.536 20.8479C22.9864 24.3777 20.2611 26.712 16.5556 26.7574C11.3657 26.8253 6.17579 26.7687 0.98021 26.7857C0.492947 26.7857 0.339966 26.661 0.339966 26.1568C0.356963 17.76 0.356963 9.3632 0.339966 0.96641C0.339966 0.394159 0.555274 0.309169 1.05387 0.309169C6.05681 0.326167 11.0598 0.269513 16.0627 0.331838C20.9297 0.394162 24.0912 4.47923 22.8504 9.00058C22.2951 11.0403 20.9807 12.3774 18.9013 13.097ZM11.1391 16.2132C10.0116 16.2132 8.87841 16.2359 7.75091 16.2019C7.29197 16.1905 7.16165 16.3379 7.17298 16.7855C7.20131 18.0376 7.18432 19.2954 7.17865 20.5476C7.17865 20.8592 7.19564 21.0915 7.61492 21.0858C9.87559 21.0688 12.1363 21.1368 14.3913 21.0348C15.8644 20.9669 16.6803 19.9243 16.618 18.5305C16.5613 17.2047 15.5584 16.2472 14.1476 16.2132C13.1448 16.1962 12.1419 16.2189 11.1391 16.2132ZM10.8954 10.519C11.8983 10.519 12.9012 10.5474 13.904 10.5134C15.2525 10.4624 16.108 9.53317 16.0854 8.20169C16.0684 6.92121 15.2128 6.04868 13.8757 6.03168C11.836 6.00335 9.80194 6.03735 7.76223 6.01468C7.32596 6.00902 7.15598 6.11666 7.17298 6.58692C7.20697 7.68043 7.21264 8.77961 7.17298 9.87878C7.15032 10.451 7.38829 10.5474 7.88688 10.536C8.88407 10.502 9.89259 10.519 10.8954 10.519Z" fill="white"/>
<path d="M103.538 11.3122C103.538 8.29233 103.532 5.27811 103.538 2.25821C103.543 0.694436 103.912 0.337479 105.487 0.337479C110.076 0.337479 114.671 0.331813 119.26 0.337479C124.518 0.343145 129.261 4.53021 129.912 9.59548C130.688 15.5786 126.943 20.4852 121.912 21.8677C121.091 22.0943 120.96 21.947 121.17 21.1142C121.855 18.3776 123.13 15.9696 124.977 13.8449C125.89 12.791 126.037 11.5502 125.442 10.4397C124.847 9.33486 123.719 8.72294 122.473 8.85892C121.612 8.95524 120.972 9.41417 120.411 10.0601C117.538 13.3689 115.736 17.1821 115.051 21.5051C114.949 22.1453 114.699 22.2417 114.144 22.2417C111.187 22.219 108.235 22.236 105.277 22.2303C103.985 22.2303 103.543 21.7884 103.538 20.4626C103.532 17.4087 103.538 14.3605 103.538 11.3122Z" fill="#3EC7F3"/>
<path d="M85.5713 15.1709C86.6252 13.7941 87.509 12.6326 88.3929 11.4768C89.2485 10.3549 90.104 9.22743 90.9652 8.10559C91.1749 7.83363 91.3505 7.55599 91.7754 7.56166C94.0588 7.57865 96.3421 7.56733 98.8351 7.56733C97.4923 9.23309 96.2571 10.7629 95.0276 12.287C94.0984 13.4371 93.1862 14.5987 92.223 15.7148C91.8377 16.1681 91.7981 16.474 92.172 16.984C94.2967 19.9019 96.3761 22.8595 98.4668 25.8C98.6651 26.0777 98.8521 26.361 99.1467 26.7859C97.2146 26.7859 95.4016 26.6556 93.6168 26.8255C92.0134 26.9729 91.1125 26.4233 90.393 25.0068C89.5318 23.3127 88.4099 21.749 87.3617 20.0719C86.7895 20.7461 86.2909 21.3467 85.7753 21.9359C85.543 22.2022 85.56 22.5138 85.5657 22.8255C85.5657 23.9586 85.5487 25.0918 85.577 26.2193C85.5883 26.6782 85.4297 26.8029 84.9877 26.7972C83.3503 26.7746 81.7185 26.7576 80.0811 26.8029C79.4352 26.8199 79.3786 26.5479 79.3842 26.0267C79.4012 22.8821 79.3955 19.7376 79.3955 16.5987C79.3955 11.5391 79.4239 6.47948 79.3729 1.41988C79.3616 0.468014 79.6448 0.26972 80.5287 0.315047C81.9395 0.388703 83.3616 0.371694 84.7724 0.320701C85.458 0.292372 85.594 0.524683 85.5883 1.16492C85.56 5.59562 85.5713 10.0263 85.5713 14.4627C85.5713 14.5987 85.5713 14.746 85.5713 15.1709Z" fill="white"/>
<path d="M48.953 16.7289C49.0266 15.8904 49.0833 15.0235 48.9303 14.1623C48.732 13.0404 47.6952 12.2529 46.222 12.0546C44.0633 11.7656 42.0916 12.2755 40.3522 13.5503C39.78 13.9696 39.5703 13.862 39.2814 13.2897C38.8451 12.4229 38.3748 11.5673 37.8422 10.7571C37.5023 10.2358 37.6099 9.95254 38.0802 9.62392C40.4372 7.95249 43.0775 7.18194 45.9444 7.12528C47.5875 7.09695 49.2023 7.24993 50.7604 7.83918C53.5366 8.88736 55.0268 10.9554 55.1174 13.845C55.2477 17.9584 55.1571 22.0831 55.1911 26.1965C55.1967 26.7461 54.9588 26.7915 54.5168 26.7858C52.9134 26.7688 51.31 26.7631 49.7065 26.7858C49.2023 26.7971 48.9303 26.6895 48.9983 26.1229C49.0323 25.8452 49.004 25.5619 49.004 25.0917C47.7631 26.1002 46.5223 26.7744 45.0945 27.0577C43.3891 27.392 41.7177 27.3637 40.1142 26.6101C37.8706 25.5563 36.6127 23.7942 36.4881 21.3126C36.3691 18.9442 37.083 16.8762 39.3154 15.7884C42.4316 14.2699 45.5195 14.5532 48.4374 16.4626C48.5677 16.5476 48.6753 16.6609 48.7943 16.7572C48.8113 16.7799 48.8566 16.7516 48.953 16.7289ZM45.5308 23.205C46.7036 23.2106 47.6668 22.9783 48.4997 22.3551C49.1853 21.8452 49.2306 20.3097 48.6073 19.7601C47.4232 18.7176 44.8566 18.5136 43.5421 19.3635C42.2956 20.1737 42.2786 21.8225 43.5138 22.6554C44.1653 23.0973 44.8962 23.2333 45.5308 23.205Z" fill="white"/>
<path d="M69.6389 7.12501C71.5993 7.159 74.098 7.85589 76.1037 9.8956C76.6136 10.4112 76.7099 10.7625 76.081 11.2837C75.0668 12.1279 74.132 13.0571 73.1801 13.9693C72.8515 14.281 72.6758 14.3433 72.3076 13.941C70.6588 12.1619 67.6559 12.0996 65.9505 13.7541C64.2167 15.4311 64.1771 18.757 65.8712 20.5304C67.5426 22.2755 70.4378 22.2868 72.2056 20.4851C72.6588 20.0261 72.8685 20.0431 73.2934 20.4737C74.2226 21.4086 75.1858 22.3095 76.183 23.182C76.6816 23.6183 76.6533 23.9016 76.2057 24.3719C74.0413 26.6269 71.3274 27.3238 68.3245 27.2614C62.8739 27.1425 58.6472 23.2784 58.3582 18.1621C57.9786 11.618 62.2507 7.11934 69.6389 7.12501Z" fill="white"/>
<path d="M57.684 39.1428C57.684 36.7858 57.701 34.4288 57.6727 32.0718C57.667 31.4882 57.786 31.2503 58.4432 31.2616C60.6416 31.3069 62.8456 31.2503 65.044 31.2843C68.4435 31.3466 71.2651 33.239 72.3529 36.1343C73.5144 39.2391 72.7778 42.7916 70.4888 44.9106C68.7551 46.5197 66.6077 47.024 64.3244 47.0693C62.347 47.1033 60.364 47.0523 58.3809 47.092C57.752 47.1033 57.667 46.837 57.6727 46.3101C57.6953 43.9191 57.684 41.5338 57.684 39.1428ZM61.7804 39.0918C61.7804 40.3496 61.7918 41.6074 61.7748 42.8653C61.7691 43.3015 61.8881 43.5055 62.3583 43.4828C63.2989 43.4318 64.2507 43.4829 65.1856 43.3695C67.1403 43.1316 68.5454 41.4601 68.6361 39.3751C68.7381 37.1088 67.6219 35.4543 65.6049 34.9841C64.4944 34.7234 63.3499 34.9104 62.2167 34.8651C61.7181 34.8424 61.7804 35.1937 61.7804 35.5053C61.7804 36.7008 61.7804 37.8963 61.7804 39.0918Z" fill="white"/>
<path d="M27.1621 13.471C27.1621 9.41996 27.1961 5.3632 27.1394 1.31212C27.1281 0.439578 27.3944 0.275274 28.1876 0.309269C29.6608 0.371594 31.1452 0.354602 32.6183 0.314941C33.2189 0.297943 33.3492 0.501906 33.3492 1.06849C33.3322 9.39162 33.3322 17.7204 33.3492 26.0436C33.3492 26.5988 33.2416 26.8141 32.6297 26.7971C31.0602 26.7518 29.4851 26.7518 27.9157 26.7971C27.2754 26.8198 27.1451 26.5988 27.1508 26.0039C27.1734 21.8282 27.1621 17.6524 27.1621 13.471Z" fill="white"/>
<path d="M41.1681 36.8766C42.7715 35.5054 44.426 35.0352 46.307 35.4431C47.8708 35.7774 48.868 36.8879 48.8963 38.48C48.9416 41.1486 48.902 43.8229 48.919 46.4972C48.9246 46.9504 48.7887 47.1091 48.3297 47.0921C47.5139 47.0638 46.6923 47.0524 45.8764 47.0921C45.2985 47.1204 45.2022 46.8598 45.2078 46.3612C45.2305 44.4745 45.2135 42.5877 45.2192 40.701C45.2192 39.8511 45.1569 39.0352 44.1937 38.6896C43.2588 38.3553 41.9613 38.7633 41.3551 39.4885C41.1171 39.7718 41.1681 40.0721 41.1681 40.3724C41.1624 42.3498 41.1341 44.3328 41.1794 46.3102C41.1964 46.9561 40.9755 47.1204 40.3805 47.0807C39.6893 47.0354 38.9924 47.0297 38.3068 47.0807C37.6439 47.1317 37.4513 46.9051 37.457 46.2422C37.491 42.8144 37.474 39.3922 37.474 35.9643C37.474 34.6102 37.491 33.2617 37.4626 31.9076C37.4513 31.4203 37.6043 31.239 38.1029 31.2617C38.9188 31.2957 39.7403 31.3014 40.5562 31.2617C41.0831 31.2334 41.1738 31.4543 41.1681 31.9133C41.1568 33.5167 41.1681 35.1088 41.1681 36.8766Z" fill="white"/>
<path d="M81.4919 46.1231C79.9168 47.2053 78.387 47.6472 76.6986 47.1486C74.8686 46.6104 73.809 44.9389 74.047 43.0069C74.268 41.2108 75.5881 40.0663 77.5485 39.9643C78.9593 39.8907 79.3729 39.9927 81.3899 40.8992C81.6846 38.9218 80.8857 38.0776 78.9083 38.2363C78.0074 38.3099 77.1972 38.6045 76.4437 39.0805C76.2963 39.1711 76.0187 39.3411 75.9904 39.3014C75.4408 38.6895 75.0329 37.9643 74.7722 37.2051C74.6306 36.7915 75.2425 36.6158 75.5711 36.4288C77.6958 35.222 79.9565 34.9614 82.2965 35.6526C84.0586 36.1739 85.1011 37.4827 85.1521 39.3184C85.2201 41.7038 85.1804 44.0947 85.2031 46.4801C85.2087 46.9277 85.0614 47.092 84.6082 47.075C83.8206 47.0467 83.033 47.0296 82.2512 47.0806C81.6336 47.1316 81.3673 46.9163 81.4919 46.1231ZM79.4749 44.8993C80.0471 44.8993 80.693 44.7293 81.0387 44.5027C81.6506 44.1004 81.6846 43.1939 81.1067 42.7576C80.4098 42.2307 79.0839 42.1514 78.3417 42.5876C77.4975 43.0862 77.4918 44.1457 78.3417 44.6273C78.7043 44.8313 79.1009 44.9276 79.4749 44.8993Z" fill="white"/>
<path d="M19.7965 42.4803C18.6633 42.4803 17.5358 42.4973 16.4027 42.4746C15.8021 42.4633 15.7738 42.6729 16.0344 43.1319C16.5386 44.0271 17.7681 44.622 18.9523 44.4747C19.3829 44.4237 19.8022 44.2537 20.2328 44.1744C20.7144 44.0894 21.179 43.4038 21.5302 43.7155C22.1025 44.2141 22.4481 44.9676 22.8844 45.6249C23.0317 45.8458 22.8277 45.9478 22.6974 46.0725C20.7654 47.8912 15.9437 47.7439 13.819 45.8005C11.5357 43.7098 11.2751 39.9817 13.2468 37.5057C14.8672 35.4603 17.9438 34.7238 20.4311 35.7776C22.907 36.8258 24.0062 39.3528 23.9099 42.0214C23.8929 42.503 23.6209 42.486 23.2867 42.486C22.1195 42.4746 20.958 42.4803 19.7965 42.4803ZM18.0061 40.0893C18.5727 40.0893 19.1393 40.0553 19.7002 40.095C20.4481 40.1516 20.3801 39.7947 20.1308 39.3244C19.7058 38.5142 18.9636 38.1799 18.1137 38.1573C17.2582 38.1346 16.5103 38.4462 16.0514 39.2338C15.9324 39.4434 15.7737 39.7267 15.8304 39.9193C15.9154 40.2196 16.261 40.0667 16.4933 40.078C16.9976 40.1063 17.5018 40.0893 18.0061 40.0893Z" fill="white"/>
<path d="M137.754 16.4287C134.808 16.4287 132.553 14.185 132.553 11.2501C132.553 8.37753 134.898 6.03754 137.771 6.04887C140.655 6.05453 142.966 8.3832 142.961 11.2728C142.961 14.202 140.706 16.4287 137.754 16.4287Z" fill="#3EC7F3"/>
<path d="M24.8901 41.2449C24.9524 38.8086 26.0006 36.8822 28.3123 35.902C30.7202 34.8822 33.0942 35.0238 35.2472 36.6896C35.8478 37.1542 35.9442 37.5848 35.2529 38.055C34.998 38.2307 34.7657 38.4516 34.556 38.6839C33.9611 39.3412 33.5078 39.7321 32.573 38.9276C31.6381 38.123 29.9554 38.599 29.2075 39.5848C28.4142 40.633 28.5276 42.4121 29.4454 43.3243C30.3746 44.2478 31.9781 44.3668 32.9582 43.4603C33.4342 43.0183 33.6778 43.0806 34.0574 43.4773C34.4257 43.8625 34.7883 44.2761 35.2246 44.5651C36.0235 45.0977 35.7798 45.5339 35.1849 45.9872C33.0206 47.6303 30.6522 47.7663 28.2499 46.7181C25.9496 45.7096 24.9354 43.7719 24.8901 41.2449Z" fill="white"/>
</svg>
